<?xml version="1.0" standalone="no"?><!DOCTYPE svg PUBLIC "-//W3C//DTD SVG 1.1//EN" "http://www.w3.org/Graphics/SVG/1.1/DTD/svg11.dtd"><svg t="1702803797063" class="icon" viewBox="0 0 1024 1024" version="1.1" xmlns="http://www.w3.org/2000/svg" p-id="26345" xmlns:xlink="http://www.w3.org/1999/xlink" width="200" height="200"><path d="M435.2 691.2H768a25.6 25.6 0 0 1 14.1824 4.3008l113.8176 75.8784V384H614.4v-51.2h307.2a25.6 25.6 0 0 1 25.6 25.6v460.8a25.6 25.6 0 0 1-39.7824 21.2992L760.2688 742.4H409.6a25.6 25.6 0 0 1-25.6-25.6v-153.6h51.2v128z" fill="#333333" p-id="26346"></path><path d="M263.7312 588.8l-147.1488 98.0992A25.6 25.6 0 0 1 76.8 665.6V204.8a25.6 25.6 0 0 1 25.6-25.6h512a25.6 25.6 0 0 1 25.6 25.6v358.4a25.6 25.6 0 0 1-25.6 25.6H263.7312zM128 230.4v387.3792l113.8176-75.8784A25.6 25.6 0 0 1 256 537.6h332.8v-307.2h-460.8z" fill="#6B57FE" p-id="26347"></path><path d="M230.4 358.4h256a25.6 25.6 0 0 0 0-51.2h-256a25.6 25.6 0 0 0 0 51.2zM230.4 460.8h256a25.6 25.6 0 0 0 0-51.2h-256a25.6 25.6 0 0 0 0 51.2z" fill="#333333" p-id="26348"></path></svg>